{"asset":{"version":"2.0","generator":"Blockbench 4.7.4 glTF exporter"},"scenes":[{"nodes":[1],"name":"blockbench_export"}],"scene":0,"nodes":[{"rotation":[6.162975822039155e-33,-3.773734306841389e-49,-1,6.123233995736766e-17],"translation":[0,0.031249999999999993,0],"name":"strawberry","mesh":0},{"children":[0]}],"bufferViews":[{"buffer":0,"byteOffset":0,"byteLength":1512,"target":34962,"byteStride":12},{"buffer":0,"byteOffset":1512,"byteLength":1512,"target":34962,"byteStride":12},{"buffer":0,"byteOffset":3024,"byteLength":1008,"target":34962,"byteStride":8},{"buffer":0,"byteOffset":4032,"byteLength":336,"target":34963}],"buffers":[{"byteLength":4368,"uri":"data:application/octet-stream;base64,"}],"accessors":[{"bufferView":0,"componentType":5126,"count":126,"max":[0.029127761721611023,0.02968749962747097,0.02656250074505806],"min":[-0.029127761721611023,-0.03125042840838432,-0.029997384175658226],"type":"VEC3"},{"bufferView":1,"componentType":5126,"count":126,"max":[0.9163256883621216,0.8574929237365723,0.9438583850860596],"min":[-0.9165446162223816,-0.9578262567520142,-0.8463929295539856],"type":"VEC3"},{"bufferView":2,"componentType":5126,"count":126,"max":[0.2421875,0.6328125],"min":[0.0390625,0.0546875],"type":"VEC2"},{"bufferView":3,"componentType":5123,"count":168,"max":[125],"min":[0],"type":"SCALAR"}],"materials":[{"pbrMetallicRoughness":{"metallicFactor":0,"roughnessFactor":1,"baseColorTexture":{"index":0}},"alphaMode":"MASK","alphaCutoff":0.05,"doubleSided":true}],"textures":[{"sampler":0,"source":0,"name":"strawberry"}],"samplers":[{"magFilter":9728,"minFilter":9728,"wrapS":33071,"wrapT":33071}],"images":[{"mimeType":"image/png","uri":"data:image/png;base64,"}],"meshes":[{"primitives":[{"mode":4,"attributes":{"POSITION":0,"NORMAL":1,"TEXCOORD_0":2},"indices":3,"material":0}]}]}